<svg xmlns="http://www.w3.org/2000/svg" xmlns:xlink="http://www.w3.org/1999/xlink" viewBox="0 0 131.29 106.25"><defs><style>.cls-1,.cls-3,.cls-4,.cls-5{fill:none;}.cls-2{clip-path:url(#clip-path);}.cls-3,.cls-4,.cls-5{stroke:#1d1d1b;stroke-width:2.93px;}.cls-4,.cls-5{stroke-linejoin:round;}.cls-5{stroke-linecap:round;}</style><clipPath id="clip-path"><rect class="cls-1" width="131.29" height="106.25"/></clipPath></defs><title>Recurso 4</title><g id="Capa_2" data-name="Capa 2"><g id="Capa_1-2" data-name="Capa 1"><g class="cls-2"><path class="cls-3" d="M62.9,101.75a3,3,0,0,0,2.75-3V7.54A3.06,3.06,0,0,0,62.9,4.49s-10.42-3-28.85-3A157.82,157.82,0,0,0,4.17,4.2a3.47,3.47,0,0,0-2.7,3.34V98.71a3.06,3.06,0,0,0,2.75,3.05s10.42,3,28.85,3A142.05,142.05,0,0,0,62.9,101.75Z"/><path class="cls-4" d="M112.38,2.11c-4.09-.38-8.84-.64-14.16-.64A166.52,166.52,0,0,0,67,4.49a1.69,1.69,0,0,0-1.32,1.63v94A1.49,1.49,0,0,0,67,101.61s11.83,3.17,30.26,3.17a158.79,158.79,0,0,0,31.25-3.18,1.48,1.48,0,0,0,1.34-1.48V19.55Z"/><path class="cls-5" d="M115.59,19.48h14.23c0-.12-.17-.29-.15-.27s-15-15.09-17.13-17.13v14.5A2.89,2.89,0,0,0,115.59,19.48Z"/></g></g></g></svg>