<svg xmlns="http://www.w3.org/2000/svg" xmlns:xlink="http://www.w3.org/1999/xlink" viewBox="0 0 130.86 106.04"><defs><style>.cls-1,.cls-3,.cls-4{fill:none;}.cls-2{clip-path:url(#clip-path);}.cls-3,.cls-4{stroke:#1d1d1b;stroke-width:2.92px;}.cls-4{stroke-linecap:round;stroke-linejoin:round;}</style><clipPath id="clip-path"><rect class="cls-1" width="130.86" height="106.04"/></clipPath></defs><title>Recurso 3</title><g id="Capa_2" data-name="Capa 2"><g id="Capa_1-2" data-name="Capa 1"><g class="cls-2"><path class="cls-3" d="M7,1.46S1.46,1.46,1.46,7V90.32s0,5.51,5.51,5.51H123.9s5.51,0,5.51-5.51V7s0-5.51-5.51-5.51Z"/><path class="cls-3" d="M11,8.07a2.7,2.7,0,0,0-2.75,2.75V72.54A2.7,2.7,0,0,0,11,75.29h108.8a2.7,2.7,0,0,0,2.75-2.75V10.83a2.7,2.7,0,0,0-2.75-2.75Z"/><polygon class="cls-3" points="47.64 95.94 47.64 95.94 45.96 104.47 84.9 104.47 83.22 95.94 47.64 95.94"/><circle class="cls-3" cx="65.43" cy="86.31" r="3.32"/><line class="cls-4" x1="36.35" y1="104.58" x2="94.52" y2="104.58"/></g></g></g></svg>