<!-- Generator: Adobe Illustrator 21.1.0, SVG Export Plug-In  -->
<svg version="1.1"
	 xmlns="http://www.w3.org/2000/svg" xmlns:xlink="http://www.w3.org/1999/xlink" xmlns:a="http://ns.adobe.com/AdobeSVGViewerExtensions/3.0/"
	 x="0px" y="0px" width="128.26px" height="104.36px" viewBox="0 0 128.26 104.36"
	 style="enable-background:new 0 0 128.26 104.36;" xml:space="preserve">
<style type="text/css">
	.st0{fill:#FFFFFF;}
	.st1{fill:none;stroke:#000000;stroke-width:2.86;}
	.st2{fill:none;stroke:#000000;stroke-width:2.86;stroke-linecap:round;}
</style>
<defs>
</defs>
<g id="Capa_2_1_">
	<g id="Capa_1-2_1_">
		<g>
			<path class="st0" d="M103.73,44.43c0,0,0-6.8-6.8-6.8H8.23c0,0-6.8,0-6.8,6.8v51.5c0,0,0,6.8,6.8,6.8h88.7c0,0,6.8,0,6.8-6.8
				V44.43z"/>
			<path class="st1" d="M103.73,44.43c0,0,0-6.8-6.8-6.8H8.23c0,0-6.8,0-6.8,6.8v51.5c0,0,0,6.8,6.8,6.8h88.7c0,0,6.8,0,6.8-6.8
				V44.43z"/>
			<path class="st0" d="M93.93,47.13c0-1.4-1.1-2.6-2.5-2.6h-0.1h-70.5c-1.4,0-2.6,1.1-2.6,2.5v0.1v46.1c0,1.4,1.1,2.6,2.5,2.6h0.1
				h70.4c1.4,0,2.6-1.1,2.6-2.5v-0.1v-46.1H93.93z"/>
			<path class="st1" d="M93.93,47.13c0-1.4-1.1-2.6-2.5-2.6h-0.1h-70.5c-1.4,0-2.6,1.1-2.6,2.5v0.1v46.1c0,1.4,1.1,2.6,2.5,2.6h0.1
				h70.4c1.4,0,2.6-1.1,2.6-2.5v-0.1v-46.1H93.93z"/>
		</g>
		<line class="st2" x1="10.33" y1="74.43" x2="10.33" y2="66.03"/>
		<g>
			<path class="st0" d="M43.83,1.43c0,0-5.7,0-5.7,5.7v90.1c0,0,0,5.7,5.7,5.7h60.3c0,0,5.7,0,5.7-5.7V7.13c0,0,0-5.7-5.7-5.7H43.83
				z"/>
			<path class="st1" d="M43.83,1.43c0,0-5.7,0-5.7,5.7v90.1c0,0,0,5.7,5.7,5.7h60.3c0,0,5.7,0,5.7-5.7V7.13c0,0,0-5.7-5.7-5.7H43.83
				z"/>
			<path class="st0" d="M47.03,12.63c-1.2,0-2.2,0.9-2.2,2.1v0.1v67.6c0,1.2,0.9,2.2,2.1,2.2h0.1h54c1.2,0,2.2-0.9,2.2-2.1v-0.1
				v-67.6c0-1.2-0.9-2.2-2.1-2.2h-0.1L47.03,12.63z"/>
			<path class="st1" d="M47.03,12.63c-1.2,0-2.2,0.9-2.2,2.1v0.1v67.6c0,1.2,0.9,2.2,2.1,2.2h0.1h54c1.2,0,2.2-0.9,2.2-2.1v-0.1
				v-67.6c0-1.2-0.9-2.2-2.1-2.2h-0.1L47.03,12.63z"/>
			<circle class="st1" cx="72.63" cy="94.03" r="2.8"/>
			<path class="st0" d="M97.43,41.33c-1.4,0-2.6,1.1-2.7,2.5v0.1v56.3c0,1.4,1.1,2.6,2.5,2.6h0.1h26.9c1.4,0,2.6-1.1,2.6-2.5v-0.1
				v-56.2c0-1.4-1.1-2.6-2.5-2.6h-0.1L97.43,41.33z"/>
			<path class="st1" d="M97.43,41.33c-1.4,0-2.6,1.1-2.7,2.5v0.1v56.3c0,1.4,1.1,2.6,2.5,2.6h0.1h26.9c1.4,0,2.6-1.1,2.6-2.5v-0.1
				v-56.2c0-1.4-1.1-2.6-2.5-2.6h-0.1L97.43,41.33z"/>
			<line class="st1" x1="94.93" y1="48.03" x2="126.33" y2="48.03"/>
			<line class="st1" x1="94.93" y1="95.43" x2="126.33" y2="95.43"/>
		</g>
	</g>
</g>
</svg>