<?xml version="1.0" encoding="utf-8"?>
<!-- Generator: Adobe Illustrator 21.1.0, SVG Export Plug-In . SVG Version: 6.00 Build 0)  -->
<svg version="1.1" id="Capa_1" xmlns="http://www.w3.org/2000/svg" xmlns:xlink="http://www.w3.org/1999/xlink" x="0px" y="0px"
	 viewBox="0 0 111.8 90" style="enable-background:new 0 0 111.8 90;" xml:space="preserve">
<style type="text/css">
	.st0{fill:none;stroke:#000000;stroke-width:3.0543;}
</style>
<path class="st0" d="M52.2,17.4c0,3.3-2.7,6-6.1,6c-3.4,0-6.1-2.7-6.1-6c0-3.3,2.7-6,6.1-6C49.5,11.4,52.2,14.1,52.2,17.4z M2.4,34
	l21.4-12.3l23,15.1l11.6-7.5l2.8,2.1 M47.7,56.4H2.4V2.1h75.3v24.3"/>
<path class="st0" d="M109.5,57.6c0,16.9-13.7,30.6-30.6,30.6S48.4,74.5,48.4,57.6C48.4,40.7,62.1,27,78.9,27S109.5,40.7,109.5,57.6z
	 M74,44l17.7,11.5c1.3,0.8,1.3,2.7,0,3.5L74,70.5c-1.4,0.9-3.2-0.1-3.2-1.7v-23C70.8,44.1,72.6,43.1,74,44z"/>
</svg>
